<svg width="35" height="26" viewBox="0 0 35 26" fill="none" xmlns="http://www.w3.org/2000/svg">
<path d="M25.4211 17.0946C25.3827 17.0727 25.3547 17.0365 25.3431 16.9939C25.3314 16.9513 25.3372 16.9058 25.3591 16.8675C25.381 16.8292 25.4173 16.8011 25.4598 16.7895C25.5024 16.7779 25.5479 16.7836 25.5862 16.8055C27.6773 17.7452 29.6944 18.8416 31.6201 20.0854C31.7308 20.1543 31.855 20.1984 31.9843 20.2147C32.1136 20.231 32.2449 20.2191 32.3692 20.1798C32.6467 20.0846 32.9059 19.943 33.136 19.7609C33.4109 19.5468 33.6245 19.264 33.7553 18.941C33.8123 18.7864 33.8265 18.6193 33.7964 18.4573C33.7663 18.2953 33.693 18.1445 33.5842 18.0207C31.8148 15.9738 29.4555 14.6347 27.5739 13.5375C27.3907 13.4573 27.2362 13.3231 27.1311 13.1529C27.0259 12.9827 26.9751 12.7845 26.9853 12.5847C26.9956 12.3848 27.0664 12.1929 27.1884 12.0343C27.3104 11.8758 27.4778 11.7581 27.6683 11.697C28.1519 11.5319 29.3139 11.3608 30.6646 11.1071C33.4368 10.588 34.3392 8.55877 34.3156 5.88653C34.3065 5.70603 34.2263 5.53649 34.0926 5.41492C33.9588 5.29335 33.7825 5.22962 33.6019 5.23764C32.2158 5.23764 30.9713 5.39692 29.9214 5.33203C28.4587 5.23764 27.8099 4.84831 27.0195 3.09631C26.6362 2.07747 26.0571 1.14358 25.3149 0.347389C25.2514 0.295362 25.1763 0.25951 25.0959 0.242909C25.0156 0.226308 24.9324 0.229454 24.8535 0.252077C24.7746 0.274699 24.7024 0.316123 24.643 0.372794C24.5837 0.429466 24.539 0.499692 24.5127 0.577449C24.4059 1.35914 24.3684 2.14874 24.4007 2.93704C24.4007 2.93704 23.5513 1.29123 22.9851 0.441772C22.9282 0.366746 22.8513 0.309256 22.7633 0.275884C22.6753 0.242512 22.5796 0.234606 22.4873 0.253073C22.395 0.271539 22.3097 0.315631 22.2413 0.3803C22.1728 0.44497 22.124 0.527603 22.1003 0.618741C22.0001 1.20864 21.9824 2.48872 21.9116 4.15813C21.8976 5.48934 21.6706 6.80973 21.2392 8.06915C21.0114 8.78351 20.5815 9.41658 20.0017 9.89185C19.4218 10.3671 18.7167 10.6642 17.9716 10.7473C15.9291 11.0053 13.8586 10.9376 11.8374 10.5467C10.766 10.2242 9.77432 9.67987 8.92686 8.94917C8.0794 8.21848 7.39505 7.31772 6.91823 6.30536C6.89961 6.23726 6.85765 6.17788 6.79967 6.13761C6.7417 6.09734 6.67141 6.07873 6.6011 6.08506C6.5308 6.09139 6.46496 6.12224 6.41511 6.17222C6.36526 6.2222 6.33456 6.28812 6.32841 6.35845C5.87424 7.88629 6.3284 10.2872 7.63782 11.9035C5.86834 13.2072 1.63339 16.2274 0.0762546 19.6194C0.020567 19.7418 -0.00526293 19.8757 0.000889574 20.01C0.00704207 20.1444 0.0450014 20.2753 0.111644 20.3921C0.271858 20.6764 0.489292 20.9244 0.750207 21.1203C1.01112 21.3163 1.30984 21.456 1.6275 21.5306C1.75028 21.5555 1.87707 21.5525 1.99854 21.5219C2.12002 21.4913 2.23307 21.4338 2.32939 21.3537C4.28761 19.7078 7.11877 17.3954 8.53435 16.8881C8.57268 16.8662 8.61813 16.8604 8.66072 16.8721C8.70331 16.8837 8.73953 16.9117 8.76144 16.9501C8.78334 16.9884 8.78911 17.0339 8.7775 17.0765C8.76588 17.119 8.73783 17.1553 8.6995 17.1772C6.17126 18.9055 4.07443 21.1923 2.57122 23.8607C2.50556 23.977 2.46862 24.1072 2.4635 24.2406C2.45837 24.374 2.48519 24.5067 2.54173 24.6276C2.68988 24.9338 2.91307 25.1976 3.19053 25.3945C3.39701 25.5543 3.62054 25.6908 3.85704 25.8015C4.01624 25.8713 4.19256 25.8922 4.36369 25.8618C4.53482 25.8313 4.69308 25.7508 4.81845 25.6304C6.91823 23.613 8.31022 22.2267 11.3537 20.8345C14.5263 19.6594 17.979 19.4662 21.2628 20.28C24.2945 21.0705 26.4709 22.3329 29.7209 24.781C29.8296 24.8635 29.9559 24.9197 30.0899 24.9453C30.224 24.9709 30.3621 24.9651 30.4936 24.9284C30.8391 24.8396 31.1586 24.6697 31.4255 24.4329C31.618 24.2441 31.7811 24.0273 31.9091 23.7899C31.9861 23.6498 32.022 23.4907 32.0126 23.331C32.0032 23.1714 31.949 23.0176 31.8561 22.8874C30.0866 20.3213 27.1375 18.1682 25.4211 17.0946" fill="black"/>
</svg>
