<svg width="347" height="48" viewBox="0 0 347 48" fill="none" xmlns="http://www.w3.org/2000/svg">
<g clip-path="url(#clip0_1_2)">
<path d="M48 0H24V48H48V0Z" fill="#F2B5BE"/>
<path d="M24 0H0V48H24V0Z" fill="#FF6A00"/>
<path fill-rule="evenodd" clip-rule="evenodd" d="M286.069 37.3704V21.1309C286.069 17.2356 284.973 14.5732 283.21 12.8589C281.447 11.1445 278.894 10 275.185 10C268.641 10 264.883 14.1164 265.041 19.2151L270.064 19.1857C270.138 16.2384 271.861 14.5339 275.348 14.5339C278.834 14.5339 280.983 16.3661 280.988 20.8754C280.988 20.8754 275.916 20.787 272.237 21.6761C266.809 22.9827 263.846 25.7335 263.846 30.2232C263.846 34.7129 267.18 37.9942 272.493 37.9942C274.138 38.0469 275.773 37.7394 277.285 37.0934C278.796 36.4474 280.146 35.4788 281.239 34.2561C281.344 35.3059 281.509 36.3489 281.733 37.3802H286.064L286.069 37.3704ZM280.938 24.8788V26.2198C280.938 30.9944 276.563 33.5242 273.491 33.5242C270.701 33.5242 269.19 32.1144 269.19 30.0267C269.19 28.1601 270.636 26.3819 274.34 25.4781C276.508 25.0207 278.723 24.8196 280.938 24.8788ZM74.0103 23.4929C76.7808 23.4929 79.0821 22.3877 79.9365 21.6263V10.633H85.028V37.3402H79.9464V26.5826C78.0133 27.7506 75.7878 28.3517 73.5263 28.3166C71.5994 28.3828 69.6938 27.8987 68.0347 26.9216C65.4815 25.276 64 22.9329 64 19.3029V10.633H69.0718V18.119C69.0718 20.1428 69.3533 21.4937 70.5534 22.4761C71.3633 23.1441 72.4843 23.4929 74.0103 23.4929ZM238.196 32.5116C239.233 32.0449 240.082 31.1853 240.64 28.6801L240.655 28.6899C241.574 24.5736 241.835 17.2791 242.008 10.633H259.851V37.3746H254.73V15.383H246.803C246.507 22.4761 246.122 26.7938 245.381 30.1783C244.64 33.5628 243.253 35.1887 241.677 36.2595C240.24 37.2272 238.151 37.63 235.954 37.6005C235.904 35.056 235.88 32.9487 235.88 32.9487C236.673 32.9559 237.46 32.8073 238.196 32.5116ZM162.402 10.6291H167.587V37.3412H162.402V10.6291ZM136.889 10.6291H115.501V15.3742H123.605V37.3412H123.649H128.746H128.79V15.3742H136.889V10.6291ZM296.415 37.355H291.324V10.6232H313.191V37.355H308.1V15.3536H296.415V37.355ZM150.96 19.2979H145.009V10.633H139.917V37.3402H150.96C155.942 37.3402 159.76 33.1649 159.76 28.2478C159.778 25.902 158.864 23.6441 157.215 21.9666C155.566 20.289 153.318 19.328 150.96 19.293V19.2979ZM150.263 32.541H145.009V24.048H150.263C151.37 24.0854 152.42 24.5492 153.19 25.3415C153.959 26.1338 154.39 27.1926 154.39 28.2945C154.39 29.3964 153.959 30.4552 153.19 31.2475C152.42 32.0398 151.37 32.5036 150.263 32.541ZM341.815 10.6291H347V37.3412H341.815V10.6291ZM330.376 19.2979H324.426V10.633H319.334V37.3402H330.376C335.359 37.3402 339.177 33.1649 339.177 28.2478C339.195 25.902 338.28 23.6441 336.632 21.9666C334.983 20.289 332.735 19.328 330.376 19.293V19.2979ZM329.695 32.5558H324.426V24.048H329.695C330.802 24.0854 331.851 24.5492 332.621 25.3415C333.391 26.1338 333.821 27.1926 333.821 28.2945C333.821 29.3964 333.391 30.4552 332.621 31.2475C331.851 32.0398 330.802 32.5036 329.695 32.541V32.5558ZM175.842 10.6316H184.307V10.6218C185.648 10.5923 186.982 10.8296 188.23 11.3197C189.478 11.8099 190.615 12.5432 191.574 13.4764C192.534 14.4096 193.296 15.524 193.816 16.7541C194.336 17.9843 194.604 19.3055 194.604 20.6401C194.604 21.9747 194.336 23.2959 193.816 24.5261C193.296 25.7562 192.534 26.8706 191.574 27.8038C190.615 28.737 189.478 29.4703 188.23 29.9605C186.982 30.4506 185.648 30.6879 184.307 30.6584H178.672V37.3438H173.581V10.6316H175.842ZM178.677 25.8592H184.109C185.457 25.7815 186.722 25.1927 187.646 24.2141C188.57 23.2356 189.081 21.9419 189.074 20.5997C189.067 19.2576 188.542 17.9692 187.609 17.0002C186.675 16.0312 185.403 15.4554 184.055 15.3915H178.677V25.8592ZM209.882 10.1419C208.179 10.0991 206.485 10.3936 204.898 11.0084C203.31 11.6232 201.862 12.5459 200.637 13.7229C198.079 16.233 196.498 19.6174 196.498 23.9941C196.498 32.109 202.247 37.8512 210.079 37.8512C212.188 37.8551 214.269 37.3685 216.155 36.4303C218.042 35.4922 219.682 34.1284 220.944 32.4479L216.924 29.5006C216.154 30.5955 215.132 31.4914 213.943 32.1135C212.754 32.7355 211.432 33.0658 210.089 33.0767C205.763 33.0767 202.41 29.9182 202.059 26.4698H223.23C223.241 26.2833 223.252 26.1018 223.264 25.9214V25.9211C223.297 25.4125 223.329 24.9118 223.329 24.3282C223.329 20.5802 222.208 16.8912 219.734 14.2288C217.166 11.4682 213.61 10.1861 209.892 10.1616L209.882 10.1419ZM201.99 21.6953C202.104 19.8729 204.578 15.0049 209.892 15.0049C211.819 14.9549 213.698 15.6075 215.175 16.8397C216.652 18.072 217.626 19.7989 217.912 21.6953H201.99ZM97.4483 11.0084C99.0355 10.3936 100.73 10.0991 102.432 10.1419L102.447 10.1616C106.166 10.1861 109.727 11.4682 112.295 14.2288C114.764 16.8912 115.885 20.5802 115.885 24.3282C115.885 24.8828 115.856 25.3626 115.826 25.8454C115.814 26.051 115.801 26.2571 115.791 26.4698H94.6149C94.9655 29.9182 98.3187 33.0767 102.65 33.0767C103.993 33.0646 105.314 32.7338 106.503 32.1118C107.691 31.4899 108.714 30.5947 109.485 29.5006L113.5 32.4479C112.238 34.1287 110.598 35.4927 108.711 36.4309C106.825 37.369 104.744 37.8555 102.635 37.8512C94.7976 37.8512 89.0492 32.109 89.0492 23.9941C89.0492 19.6174 90.6344 16.233 93.1876 13.7229C94.4128 12.5459 95.8611 11.6232 97.4483 11.0084ZM102.447 15.0049C97.1335 15.0049 94.6593 19.8729 94.5457 21.6953H110.467C110.181 19.7989 109.208 18.072 107.731 16.8397C106.254 15.6075 104.375 14.9549 102.447 15.0049Z" fill="black"/>
</g>
<defs>
<clipPath id="clip0_1_2">
<rect width="347" height="48" fill="white"/>
</clipPath>
</defs>
</svg>
